<svg width="479" height="469" viewBox="0 0 479 469" fill="none" xmlns="http://www.w3.org/2000/svg">
<path d="M84.9772 143.138L240.645 57.7981C241.551 57.3015 242.648 57.3059 243.55 57.8096L396.015 142.978C396.607 143.309 397.069 143.829 397.326 144.456L404.774 162.564C404.923 162.926 405 163.313 405 163.705V292.1C405 292.353 404.968 292.605 404.905 292.85L397.25 322.49C397.044 323.284 396.523 323.959 395.807 324.359L253.055 404.027C252.608 404.276 252.105 404.407 251.593 404.407H228.171C227.681 404.407 227.199 404.287 226.766 404.058L92.1908 332.728C91.8505 332.547 91.5482 332.303 91.3002 332.009L84.799 324.281C84.4958 323.921 84.2817 323.494 84.1741 323.036L77.0794 292.819C77.0267 292.595 77 292.365 77 292.134V155.306C77 154.709 77.178 154.126 77.5112 153.631L83.9306 144.093C84.1982 143.696 84.5571 143.368 84.9772 143.138Z" fill="black" stroke="black"/>
<path fill-rule="evenodd" clip-rule="evenodd" d="M239.062 75.0896C239.959 74.5697 241.061 74.55 241.976 75.0374L369.587 142.999C371.682 144.114 371.713 147.105 369.643 148.264L296 189.5L242.086 220.102C241.114 220.654 239.916 220.62 238.977 220.013L226.903 212.215C225 210.985 225.094 208.171 227.075 207.072L284.27 175.32L330.752 148.315C332.795 147.128 332.728 144.155 330.633 143.062L241.937 96.7478C241.043 96.281 239.974 96.2946 239.092 96.7842L118.823 163.554C117.87 164.083 117.279 165.087 117.279 166.177V307.743C117.279 308.853 117.892 309.872 118.873 310.393L218.294 363.163C220.292 364.223 222.7 362.775 222.7 360.513V280.219C222.7 279.075 222.05 278.031 221.023 277.527L162.992 249.015C161.505 248.285 160.891 246.487 161.622 245L166.377 235.322C167.108 233.835 168.905 233.221 170.392 233.952L237.806 267.073C238.833 267.577 239.483 268.622 239.483 269.766V388.421C239.483 390.683 237.075 392.132 235.077 391.071L102.09 320.485C101.109 319.965 100.496 318.946 100.496 317.835V157.108C100.496 156.038 101.066 155.049 101.992 154.512L239.062 75.0896Z" fill="white" stroke="white" stroke-width="4"/>
<path fill-rule="evenodd" clip-rule="evenodd" d="M365.781 237.871C365.781 235.767 362.949 235.09 361.997 236.967L325.137 309.708C324.548 310.87 323.023 311.168 322.04 310.312L286.42 279.309C285.126 278.183 283.107 279.102 283.107 280.818V367.104C283.107 367.815 282.73 368.472 282.116 368.831L266.009 378.242C264.676 379.021 263 378.059 263 376.515V229.026C263 224.606 268.313 222.36 271.484 225.439L321.981 274.487C322.962 275.44 324.588 275.15 325.178 273.917L375.49 168.857C377.789 164.057 385 165.694 385 171.017V310.878C385 311.574 384.638 312.22 384.045 312.583L368.826 321.909C367.494 322.726 365.781 321.767 365.781 320.204V237.871Z" fill="white" stroke="white" stroke-width="3"/>
<path fill-rule="evenodd" clip-rule="evenodd" d="M239.5 469C371.772 469 479 364.011 479 234.5C479 104.989 371.772 0 239.5 0C107.228 0 0 104.989 0 234.5C0 364.011 107.228 469 239.5 469ZM239.5 422C345.263 422 431 338.053 431 234.5C431 130.947 345.263 47 239.5 47C133.737 47 48 130.947 48 234.5C48 338.053 133.737 422 239.5 422Z" fill="black"/>
<path d="M252.307 42.7227C250.519 42.5939 248.998 42.2531 247.745 41.7003C246.492 41.1581 245.463 40.4848 244.659 39.6807C243.865 38.8877 243.247 38.0549 242.805 37.1823L245.903 35.3244C246.206 35.7877 246.593 36.3201 247.065 36.9216C247.536 37.5336 248.201 38.0808 249.059 38.5631C249.928 39.0565 251.089 39.3557 252.542 39.4604C254.487 39.6005 256.126 39.2456 257.459 38.3957C258.792 37.5458 259.531 36.1171 259.675 34.1095L260.028 29.216L259.714 29.1934C259.411 29.613 258.985 30.1289 258.436 30.741C257.899 31.3434 257.146 31.862 256.18 32.2969C255.224 32.722 253.962 32.8781 252.394 32.7651C250.449 32.6249 248.736 32.039 247.255 31.0074C245.784 29.9765 244.662 28.5504 243.89 26.7289C243.127 24.9083 242.837 22.7432 243.017 20.2337C243.195 17.766 243.784 15.6486 244.784 13.8813C245.784 12.1035 247.094 10.7685 248.714 9.87622C250.335 8.97347 252.159 8.59518 254.188 8.74133C255.756 8.85434 256.982 9.2054 257.864 9.79451C258.758 10.3739 259.427 11.0107 259.871 11.7048C260.326 12.3893 260.674 12.9504 260.916 13.3882L261.292 13.4154L261.568 9.58842L265.144 9.84608L263.359 34.6272C263.209 36.6975 262.618 38.347 261.583 39.5758C260.558 40.8157 259.235 41.6821 257.612 42.1748C255.999 42.6787 254.231 42.8613 252.307 42.7227ZM253.135 29.4762C254.62 29.5831 255.899 29.3337 256.973 28.7279C258.047 28.1221 258.896 27.2006 259.521 25.9633C260.146 24.7261 260.523 23.2187 260.651 21.4412C260.776 19.7055 260.625 18.1548 260.198 16.7892C259.771 15.4236 259.072 14.3275 258.102 13.5008C257.131 12.6741 255.893 12.2065 254.387 12.098C252.819 11.985 251.483 12.2882 250.38 13.0075C249.288 13.7276 248.432 14.738 247.813 16.0387C247.204 17.3402 246.841 18.8065 246.723 20.4377C246.603 22.1106 246.758 23.609 247.188 24.9328C247.629 26.2469 248.341 27.3072 249.324 28.1137C250.317 28.9105 251.588 29.3647 253.135 29.4762Z" fill="white"/>
<path d="M272.529 44.5063C271.913 44.3755 271.376 44.2076 270.915 44.0026C270.453 43.8079 270.14 43.6447 269.975 43.5132L271.578 40.5101C272.411 40.9232 273.173 41.1709 273.863 41.2532C274.553 41.3356 275.217 41.1606 275.856 40.7283C276.502 40.3084 277.173 39.5455 277.869 38.4395L278.939 36.7376L275.25 11.1318L279.188 11.9689L281.708 32.1818L281.954 32.2341L292.477 14.7939L296.415 15.6309L280.632 40.57C279.921 41.6943 279.148 42.5856 278.311 43.2437C277.472 43.9121 276.571 44.3474 275.606 44.5496C274.652 44.754 273.626 44.7395 272.529 44.5063Z" fill="white"/>
<path d="M298.551 40.8579L307.482 18.4165L310.813 19.7422L309.417 23.2487L309.71 23.365C310.654 22.353 311.779 21.7232 313.085 21.4757C314.395 21.2184 315.78 21.3805 317.241 21.9619C318.721 22.5512 319.82 23.3776 320.536 24.4412C321.266 25.4989 321.67 26.7373 321.749 28.1563L321.982 28.2493C323.018 27.3189 324.247 26.7415 325.667 26.5172C327.092 26.283 328.608 26.4858 330.215 27.1254C332.221 27.9239 333.613 29.2053 334.389 30.9696C335.168 32.7242 335.033 34.9213 333.982 37.5609L328.005 52.5803L324.557 51.2081L330.534 36.1886C331.193 34.5328 331.211 33.1691 330.589 32.0976C329.966 31.026 329.041 30.246 327.813 29.7576C326.235 29.1296 324.823 29.1204 323.576 29.7299C322.333 30.3297 321.423 31.3553 320.846 32.8066L315.031 47.4169L311.524 46.0214L317.642 30.6513C318.149 29.3753 318.144 28.183 317.627 27.0743C317.113 25.9558 316.203 25.1369 314.898 24.6174C314.002 24.2608 313.069 24.1661 312.1 24.3332C311.141 24.5042 310.254 24.9185 309.439 25.5759C308.638 26.2275 308.019 27.1036 307.581 28.2043L301.999 42.2302L298.551 40.8579Z" fill="white"/>
<path d="M348.525 64.4929L367.285 38.3169L370.301 40.4787L363.376 50.1414L363.632 50.3246C364.097 50.1425 364.716 49.9278 365.486 49.6804C366.271 49.4306 367.184 49.3626 368.225 49.4764C369.28 49.5878 370.447 50.1015 371.725 51.0175C373.378 52.2023 374.539 53.6598 375.208 55.3901C375.876 57.1205 376.021 58.9974 375.641 61.021C375.261 63.0446 374.332 65.0874 372.854 67.1495C371.364 69.2285 369.719 70.7773 367.919 71.7956C366.124 72.8054 364.302 73.279 362.451 73.2163C360.606 73.1452 358.865 72.5233 357.229 71.3508C355.968 70.4469 355.108 69.5145 354.649 68.5535C354.196 67.5839 353.957 66.6842 353.933 65.8542C353.915 65.0158 353.923 64.3382 353.958 63.8216L353.6 63.5651L351.439 66.5814L348.525 64.4929ZM358.525 56.8021C357.462 58.2847 356.742 59.7484 356.365 61.1931C355.993 62.6293 355.996 63.9662 356.373 65.2037C356.756 66.4327 357.552 67.4808 358.762 68.348C360.023 69.2518 361.314 69.6737 362.634 69.6137C363.968 69.5512 365.255 69.106 366.493 68.2781C367.746 67.4478 368.873 66.3339 369.875 64.9365C370.864 63.5561 371.543 62.1594 371.91 60.7463C372.293 59.3309 372.29 57.994 371.902 56.7357C371.529 55.475 370.703 54.3867 369.425 53.4706C368.198 52.5913 366.944 52.1633 365.663 52.1869C364.389 52.2019 363.141 52.6106 361.921 53.4129C360.707 54.2068 359.575 55.3365 358.525 56.8021Z" fill="white"/>
<path d="M378.142 88.7281C376.567 87.2203 375.543 85.5225 375.072 83.6347C374.608 81.7541 374.688 79.8209 375.312 77.8349C375.944 75.8563 377.122 73.9658 378.847 72.1634C380.587 70.3458 382.435 69.0746 384.391 68.3497C386.355 67.632 388.287 67.4637 390.186 67.8448C392.093 68.2331 393.834 69.1812 395.409 70.689C396.984 72.1968 398.003 73.8909 398.467 75.7715C398.939 77.6593 398.855 79.5964 398.216 81.5826C397.585 83.5761 396.4 85.4816 394.66 87.2991C392.935 89.1015 391.094 90.3578 389.137 91.0679C387.188 91.7852 385.26 91.9497 383.353 91.5614C381.454 91.1803 379.717 90.2359 378.142 88.7281ZM380.447 86.3198C381.643 87.4652 382.922 88.1008 384.281 88.2268C385.641 88.3528 386.985 88.0935 388.313 87.4491C389.64 86.8046 390.863 85.8993 391.979 84.733C393.095 83.5668 393.95 82.3024 394.543 80.94C395.136 79.5776 395.344 78.2162 395.165 76.8558C394.987 75.4954 394.3 74.2426 393.104 73.0972C391.907 71.9519 390.625 71.32 389.258 71.2016C387.892 71.0832 386.541 71.35 385.205 72.0021C383.87 72.6541 382.644 73.5632 381.528 74.7295C380.412 75.8957 379.561 77.1563 378.975 78.5111C378.389 79.866 378.189 81.2198 378.374 82.5726C378.559 83.9254 379.25 85.1745 380.447 86.3198Z" fill="white"/>
<path d="M397.276 109.67C395.926 107.958 395.15 106.133 394.947 104.198C394.751 102.271 395.1 100.368 395.995 98.4889C396.896 96.6178 398.327 94.9104 400.287 93.3665C402.264 91.8097 404.271 90.809 406.31 90.3643C408.355 89.9279 410.291 90.0309 412.118 90.6735C413.952 91.3242 415.543 92.5061 416.892 94.219C418.242 95.932 419.014 97.7519 419.211 99.6788C419.414 101.614 419.061 103.52 418.151 105.398C417.248 107.284 415.808 109.005 413.831 110.562C411.871 112.106 409.873 113.093 407.836 113.523C405.806 113.961 403.874 113.854 402.04 113.204C400.213 112.561 398.625 111.383 397.276 109.67ZM399.895 107.608C400.919 108.909 402.096 109.717 403.425 110.031C404.754 110.346 406.12 110.277 407.525 109.824C408.93 109.371 410.267 108.646 411.535 107.647C412.803 106.648 413.826 105.515 414.604 104.249C415.381 102.982 415.777 101.663 415.79 100.291C415.804 98.9196 415.298 97.583 414.273 96.2818C413.249 94.9806 412.068 94.176 410.731 93.8679C409.394 93.5598 408.019 93.6354 406.606 94.0946C405.192 94.5538 403.852 95.2829 402.583 96.2818C401.315 97.2808 400.296 98.4101 399.527 99.6699C398.758 100.93 398.371 102.242 398.365 103.608C398.36 104.973 398.87 106.306 399.895 107.608Z" fill="white"/>
<path d="M411.753 149.272C410.964 147.662 410.493 146.177 410.34 144.816C410.177 143.46 410.24 142.232 410.53 141.132C410.816 140.047 411.224 139.094 411.756 138.273L414.921 140.014C414.673 140.509 414.408 141.111 414.126 141.822C413.834 142.537 413.696 143.387 413.712 144.371C413.723 145.37 414.049 146.524 414.69 147.832C415.548 149.583 416.68 150.82 418.086 151.544C419.491 152.268 421.097 152.187 422.905 151.301L427.31 149.141L427.172 148.859C426.656 148.808 425.996 148.7 425.191 148.534C424.4 148.373 423.573 147.984 422.711 147.368C421.862 146.756 421.092 145.745 420.4 144.333C419.542 142.582 419.185 140.807 419.331 139.008C419.481 137.218 420.148 135.531 421.333 133.946C422.522 132.371 424.246 131.029 426.506 129.922C428.727 128.833 430.853 128.275 432.883 128.249C434.923 128.218 436.736 128.678 438.323 129.628C439.919 130.574 441.164 131.96 442.059 133.786C442.751 135.198 443.065 136.434 443.001 137.493C442.95 138.557 442.737 139.455 442.36 140.188C441.998 140.926 441.689 141.51 441.432 141.939L441.598 142.278L445.044 140.589L446.622 143.808L424.312 154.744C422.448 155.657 420.725 155.977 419.143 155.702C417.555 155.441 416.14 154.733 414.898 153.579C413.65 152.44 412.602 151.004 411.753 149.272ZM423.615 143.317C424.27 144.654 425.13 145.634 426.194 146.256C427.258 146.879 428.482 147.149 429.865 147.066C431.249 146.983 432.741 146.549 434.341 145.765C435.904 144.999 437.168 144.088 438.132 143.031C439.097 141.974 439.692 140.819 439.918 139.564C440.144 138.309 439.924 137.004 439.26 135.649C438.568 134.237 437.633 133.235 436.456 132.645C435.284 132.063 433.98 131.833 432.545 131.953C431.114 132.082 429.664 132.507 428.195 133.226C426.689 133.965 425.473 134.853 424.546 135.891C423.632 136.934 423.075 138.083 422.873 139.338C422.685 140.598 422.932 141.924 423.615 143.317Z" fill="white"/>
<path d="M420.42 167.734C420.224 167.136 420.099 166.587 420.046 166.086C419.982 165.588 419.965 165.235 419.996 165.026L423.398 164.904C423.46 165.832 423.628 166.616 423.904 167.254C424.179 167.891 424.664 168.378 425.358 168.713C426.046 169.061 427.043 169.258 428.349 169.304L430.358 169.374L450.646 153.322L451.9 157.147L435.688 169.479L435.766 169.718L456.133 170.057L457.387 173.882L427.895 172.763C426.565 172.713 425.406 172.492 424.417 172.099C423.418 171.71 422.588 171.149 421.929 170.416C421.273 169.694 420.77 168.8 420.42 167.734Z" fill="white"/>
<path d="M436.629 188.342L460.518 184.779L461.047 188.325L457.315 188.881L457.361 189.192C458.71 189.5 459.821 190.156 460.691 191.16C461.572 192.163 462.128 193.442 462.36 194.997C462.595 196.573 462.433 197.938 461.874 199.092C461.327 200.255 460.46 201.227 459.272 202.008L459.31 202.257C460.635 202.685 461.751 203.456 462.66 204.571C463.578 205.685 464.165 207.097 464.42 208.808C464.739 210.944 464.331 212.791 463.196 214.349C462.071 215.905 460.104 216.892 457.294 217.312L441.306 219.696L440.758 216.026L456.747 213.641C458.509 213.378 459.697 212.708 460.31 211.631C460.923 210.554 461.132 209.362 460.938 208.056C460.687 206.376 459.985 205.15 458.831 204.379C457.688 203.606 456.344 203.335 454.799 203.566L439.246 205.885L438.689 202.153L455.051 199.712C456.409 199.51 457.437 198.906 458.135 197.901C458.844 196.894 459.094 195.696 458.887 194.307C458.745 193.353 458.358 192.499 457.726 191.745C457.096 191.002 456.292 190.444 455.314 190.07C454.348 189.705 453.279 189.61 452.107 189.785L437.177 192.012L436.629 188.342Z" fill="white"/>
<path d="M441.349 243.785L473.412 246.806L473.063 250.501L461.228 249.386L461.198 249.699C461.59 250.009 462.087 250.435 462.689 250.976C463.3 251.529 463.819 252.283 464.245 253.24C464.68 254.207 464.824 255.474 464.676 257.039C464.485 259.064 463.811 260.801 462.653 262.25C461.495 263.7 459.946 264.77 458.007 265.461C456.068 266.152 453.835 266.379 451.309 266.141C448.763 265.901 446.596 265.26 444.809 264.217C443.033 263.176 441.706 261.84 440.828 260.209C439.96 258.58 439.621 256.763 439.809 254.759C439.955 253.214 440.327 252.002 440.926 251.121C441.536 250.241 442.193 249.582 442.897 249.143C443.613 248.705 444.202 248.371 444.666 248.141L444.707 247.702L441.013 247.354L441.349 243.785ZM453.03 248.55C451.214 248.379 449.587 248.494 448.149 248.895C446.721 249.298 445.567 249.974 444.688 250.923C443.819 251.873 443.315 253.089 443.176 254.571C443.03 256.115 443.316 257.443 444.032 258.553C444.758 259.674 445.791 260.561 447.13 261.214C448.478 261.878 450.008 262.291 451.72 262.452C453.411 262.611 454.959 262.494 456.365 262.1C457.781 261.717 458.934 261.042 459.826 260.073C460.727 259.115 461.251 257.854 461.399 256.288C461.54 254.785 461.278 253.486 460.613 252.392C459.958 251.298 458.976 250.427 457.669 249.777C456.372 249.128 454.825 248.719 453.03 248.55Z" fill="white"/>
<path d="M435.348 281.467C435.858 279.347 436.81 277.608 438.204 276.251C439.596 274.904 441.307 274 443.337 273.54C445.364 273.089 447.591 273.156 450.017 273.74C452.463 274.328 454.492 275.285 456.103 276.611C457.711 277.947 458.829 279.531 459.455 281.364C460.079 283.207 460.136 285.189 459.626 287.309C459.116 289.429 458.165 291.162 456.774 292.509C455.38 293.867 453.664 294.769 451.626 295.217C449.586 295.675 447.343 295.61 444.896 295.021C442.471 294.438 440.458 293.479 438.86 292.146C437.259 290.822 436.147 289.239 435.523 287.396C434.896 285.564 434.838 283.587 435.348 281.467ZM438.589 282.247C438.202 283.857 438.296 285.282 438.871 286.52C439.447 287.758 440.347 288.789 441.572 289.612C442.797 290.435 444.195 291.036 445.764 291.413C447.334 291.791 448.857 291.893 450.333 291.72C451.808 291.547 453.089 291.041 454.175 290.202C455.261 289.364 455.998 288.139 456.385 286.529C456.773 284.918 456.674 283.493 456.088 282.252C455.502 281.011 454.592 279.978 453.356 279.153C452.121 278.327 450.718 277.725 449.149 277.348C447.579 276.97 446.061 276.869 444.596 277.045C443.13 277.221 441.86 277.729 440.784 278.57C439.708 279.411 438.977 280.637 438.589 282.247Z" fill="white"/>
<path d="M426.854 308.541C427.659 306.514 428.848 304.928 430.42 303.781C431.988 302.645 433.81 301.992 435.884 301.823C437.955 301.665 440.15 302.046 442.469 302.967C444.807 303.895 446.68 305.13 448.087 306.67C449.491 308.22 450.373 309.947 450.734 311.85C451.091 313.763 450.867 315.732 450.062 317.759C449.257 319.785 448.071 321.367 446.502 322.504C444.93 323.65 443.104 324.301 441.023 324.456C438.939 324.621 436.727 324.239 434.389 323.31C432.07 322.389 430.214 321.155 428.82 319.609C427.423 318.073 426.545 316.348 426.188 314.435C425.828 312.532 426.05 310.567 426.854 308.541ZM429.953 309.772C429.341 311.311 429.233 312.734 429.627 314.041C430.022 315.349 430.767 316.496 431.864 317.485C432.96 318.473 434.258 319.265 435.759 319.861C437.259 320.457 438.752 320.773 440.238 320.811C441.723 320.848 443.063 320.528 444.256 319.852C445.45 319.175 446.352 318.068 446.964 316.528C447.575 314.989 447.679 313.564 447.275 312.252C446.87 310.941 446.115 309.79 445.009 308.798C443.903 307.806 442.6 307.012 441.099 306.416C439.599 305.82 438.111 305.505 436.635 305.472C435.159 305.438 433.83 305.762 432.646 306.442C431.462 307.122 430.564 308.232 429.953 309.772Z" fill="white"/>
<path d="M399.842 340.912C400.839 339.423 401.888 338.271 402.989 337.456C404.081 336.636 405.176 336.076 406.273 335.776C407.355 335.479 408.384 335.354 409.361 335.403L409.441 339.014C408.888 339.048 408.234 339.121 407.478 339.232C406.713 339.338 405.908 339.645 405.064 340.152C404.205 340.662 403.37 341.522 402.559 342.733C401.474 344.353 400.97 345.952 401.048 347.531C401.126 349.11 402.002 350.46 403.674 351.58L407.75 354.31L407.925 354.049C407.711 353.577 407.474 352.952 407.214 352.172C406.957 351.407 406.879 350.496 406.98 349.441C407.084 348.4 407.574 347.227 408.449 345.92C409.534 344.3 410.891 343.102 412.521 342.327C414.145 341.56 415.94 341.292 417.905 341.523C419.864 341.763 421.889 342.583 423.979 343.983C426.035 345.359 427.583 346.92 428.623 348.664C429.671 350.413 430.182 352.213 430.155 354.062C430.136 355.917 429.561 357.689 428.429 359.379C427.554 360.685 426.642 361.576 425.693 362.051C424.747 362.54 423.863 362.806 423.04 362.848C422.22 362.904 421.56 362.929 421.06 362.922L420.85 363.235L424.038 365.371L422.042 368.349L401.4 354.523C399.675 353.368 398.535 352.037 397.98 350.529C397.411 349.025 397.314 347.446 397.69 345.792C398.051 344.142 398.768 342.515 399.842 340.912ZM410.939 348.194C410.11 349.43 409.693 350.665 409.688 351.898C409.682 353.131 410.062 354.325 410.827 355.481C411.592 356.637 412.715 357.711 414.195 358.703C415.641 359.671 417.063 360.308 418.461 360.614C419.859 360.919 421.157 360.855 422.356 360.421C423.555 359.988 424.574 359.144 425.415 357.89C426.29 356.583 426.688 355.273 426.609 353.958C426.525 352.653 426.071 351.409 425.248 350.226C424.419 349.053 423.325 348.011 421.966 347.101C420.573 346.168 419.194 345.56 417.831 345.278C416.471 345.01 415.197 345.103 414.01 345.557C412.826 346.026 411.802 346.905 410.939 348.194Z" fill="white"/>
<path d="M388.169 357.72C388.588 357.251 389 356.867 389.406 356.569C389.805 356.264 390.102 356.072 390.298 355.994L392.112 358.875C391.34 359.394 390.747 359.933 390.334 360.492C389.92 361.05 389.743 361.714 389.802 362.483C389.846 363.252 390.176 364.213 390.792 365.366L391.741 367.138L415.809 376.624L413.131 379.629L394.325 371.801L394.158 371.988L404.091 389.772L401.413 392.777L387.573 366.709C386.948 365.535 386.558 364.422 386.4 363.369C386.236 362.309 386.304 361.31 386.607 360.372C386.902 359.442 387.423 358.558 388.169 357.72Z" fill="white"/>
<path d="M378.495 382.082L393.608 400.923L390.812 403.166L388.45 400.222L388.205 400.419C388.619 401.74 388.612 403.029 388.183 404.287C387.761 405.553 386.936 406.678 385.71 407.662C384.467 408.659 383.206 409.207 381.927 409.305C380.647 409.418 379.371 409.159 378.098 408.527L377.901 408.684C378.2 410.045 378.096 411.398 377.59 412.744C377.091 414.099 376.167 415.318 374.817 416.4C373.133 417.751 371.332 418.329 369.414 418.133C367.504 417.946 365.659 416.744 363.882 414.528L353.767 401.919L356.661 399.597L366.776 412.206C367.892 413.596 369.069 414.285 370.308 414.272C371.547 414.259 372.682 413.839 373.713 413.012C375.037 411.95 375.742 410.726 375.827 409.34C375.919 407.963 375.476 406.666 374.498 405.447L364.659 393.181L367.603 390.82L377.954 403.724C378.813 404.795 379.853 405.379 381.073 405.475C382.299 405.58 383.46 405.193 384.556 404.314C385.308 403.711 385.851 402.946 386.183 402.021C386.508 401.102 386.585 400.126 386.415 399.093C386.244 398.075 385.787 397.104 385.046 396.18L375.6 384.404L378.495 382.082Z" fill="white"/>
<path d="M333.288 413.918L346.814 443.144L343.447 444.703L338.453 433.914L338.168 434.046C338.097 434.541 337.979 435.185 337.814 435.977C337.644 436.784 337.254 437.611 336.642 438.461C336.025 439.324 335.003 440.086 333.575 440.746C331.73 441.6 329.889 441.892 328.054 441.621C326.219 441.35 324.515 440.55 322.941 439.222C321.368 437.894 320.049 436.079 318.983 433.777C317.909 431.455 317.372 429.26 317.374 427.192C317.379 425.133 317.866 423.314 318.833 421.734C319.804 420.164 321.203 418.956 323.03 418.111C324.438 417.459 325.673 417.17 326.736 417.245C327.803 417.329 328.703 417.564 329.437 417.952C330.176 418.35 330.761 418.691 331.193 418.976L331.593 418.791L330.034 415.424L333.288 413.918ZM335.05 426.41C334.283 424.754 333.365 423.406 332.294 422.366C331.228 421.334 330.063 420.678 328.801 420.396C327.542 420.123 326.238 420.3 324.887 420.925C323.479 421.577 322.476 422.491 321.877 423.669C321.274 424.861 321.027 426.2 321.137 427.685C321.242 429.185 321.655 430.715 322.377 432.275C323.091 433.816 323.971 435.095 325.019 436.112C326.062 437.142 327.227 437.799 328.513 438.082C329.794 438.378 331.148 438.196 332.575 437.536C333.945 436.902 334.935 436.022 335.546 434.896C336.161 433.779 336.421 432.492 336.324 431.035C336.232 429.588 335.807 428.046 335.05 426.41Z" fill="white"/>
<path d="M297.654 427.702C299.743 427.077 301.725 427.027 303.599 427.55C305.463 428.076 307.104 429.101 308.522 430.624C309.93 432.151 310.992 434.11 311.706 436.5C312.427 438.911 312.619 441.146 312.282 443.205C311.936 445.267 311.127 447.029 309.858 448.492C308.578 449.958 306.894 451.003 304.804 451.627C302.715 452.252 300.738 452.301 298.874 451.775C297 451.252 295.358 450.222 293.946 448.685C292.525 447.151 291.454 445.179 290.734 442.768C290.019 440.378 289.837 438.157 290.186 436.105C290.526 434.056 291.336 432.298 292.615 430.832C293.885 429.37 295.564 428.326 297.654 427.702ZM298.608 430.896C297.021 431.37 295.837 432.167 295.056 433.287C294.274 434.407 293.836 435.703 293.74 437.176C293.644 438.649 293.827 440.159 294.289 441.706C294.752 443.253 295.429 444.62 296.32 445.809C297.211 446.998 298.293 447.851 299.563 448.368C300.834 448.886 302.263 448.907 303.85 448.433C305.437 447.959 306.619 447.157 307.398 446.027C308.176 444.897 308.612 443.591 308.705 442.108C308.798 440.625 308.613 439.11 308.151 437.563C307.688 436.016 307.013 434.653 306.124 433.475C305.236 432.296 304.158 431.453 302.89 430.945C301.623 430.438 300.195 430.422 298.608 430.896Z" fill="white"/>
<path d="M269.986 433.965C272.143 433.642 274.112 433.872 275.893 434.654C277.664 435.438 279.144 436.685 280.333 438.393C281.512 440.103 282.286 442.192 282.656 444.66C283.029 447.148 282.903 449.388 282.279 451.379C281.645 453.371 280.596 455.002 279.133 456.27C277.659 457.541 275.844 458.337 273.687 458.661C271.531 458.984 269.567 458.753 267.796 457.969C266.014 457.187 264.533 455.935 263.353 454.215C262.163 452.496 261.381 450.392 261.008 447.904C260.639 445.436 260.772 443.211 261.407 441.229C262.033 439.249 263.083 437.623 264.556 436.353C266.02 435.084 267.83 434.288 269.986 433.965ZM270.48 437.262C268.842 437.508 267.557 438.129 266.626 439.128C265.694 440.126 265.077 441.347 264.774 442.792C264.471 444.237 264.439 445.757 264.678 447.354C264.918 448.95 265.395 450.4 266.109 451.703C266.824 453.006 267.774 454.003 268.959 454.694C270.143 455.386 271.555 455.609 273.193 455.364C274.831 455.118 276.115 454.491 277.045 453.483C277.975 452.474 278.591 451.242 278.892 449.787C279.194 448.332 279.225 446.806 278.986 445.21C278.746 443.613 278.27 442.169 277.557 440.876C276.844 439.584 275.896 438.597 274.712 437.916C273.529 437.234 272.118 437.017 270.48 437.262Z" fill="white"/>
<path d="M228.067 426.918C229.856 427.03 231.38 427.356 232.638 427.896C233.897 428.427 234.932 429.09 235.744 429.886C236.546 430.672 237.172 431.499 237.622 432.367L234.542 434.254C234.234 433.794 233.842 433.265 233.365 432.668C232.888 432.061 232.218 431.52 231.355 431.046C230.482 430.561 229.318 430.273 227.863 430.182C225.917 430.061 224.282 430.431 222.957 431.294C221.632 432.157 220.907 433.592 220.782 435.601L220.476 440.498L220.79 440.518C221.09 440.095 221.511 439.575 222.053 438.958C222.585 438.35 223.332 437.824 224.295 437.38C225.246 436.946 226.506 436.778 228.076 436.876C230.022 436.997 231.741 437.567 233.232 438.584C234.712 439.601 235.848 441.016 236.638 442.83C237.417 444.643 237.729 446.806 237.572 449.317C237.418 451.786 236.849 453.909 235.867 455.686C234.883 457.473 233.586 458.821 231.975 459.728C230.363 460.647 228.542 461.042 226.512 460.916C224.943 460.818 223.714 460.478 222.826 459.898C221.927 459.327 221.252 458.697 220.801 458.007C220.34 457.327 219.986 456.769 219.74 456.334L219.363 456.31L219.124 460.139L215.546 459.916L217.094 435.119C217.223 433.047 217.799 431.392 218.822 430.154C219.834 428.904 221.15 428.025 222.768 427.517C224.375 426.997 226.142 426.798 228.067 426.918ZM227.366 440.172C225.88 440.079 224.603 440.341 223.536 440.957C222.468 441.573 221.627 442.503 221.014 443.746C220.401 444.989 220.039 446.5 219.928 448.278C219.819 450.015 219.985 451.564 220.425 452.926C220.865 454.287 221.575 455.377 222.553 456.194C223.531 457.011 224.774 457.467 226.281 457.561C227.85 457.659 229.183 457.343 230.279 456.613C231.364 455.883 232.21 454.864 232.817 453.558C233.413 452.25 233.762 450.781 233.864 449.148C233.969 447.474 233.799 445.977 233.357 444.658C232.903 443.348 232.181 442.295 231.191 441.498C230.189 440.71 228.915 440.268 227.366 440.172Z" fill="white"/>
<path d="M207.828 425.329C208.444 425.454 208.984 425.617 209.446 425.817C209.91 426.007 210.225 426.167 210.391 426.297L208.818 429.316C207.98 428.911 207.216 428.671 206.525 428.595C205.834 428.519 205.172 428.701 204.538 429.139C203.895 429.565 203.231 430.335 202.546 431.448L201.494 433.16L205.431 458.729L201.485 457.93L198.769 437.742L198.523 437.692L188.169 455.234L184.223 454.435L199.763 429.344C200.463 428.213 201.228 427.314 202.058 426.648C202.89 425.971 203.787 425.527 204.75 425.316C205.703 425.102 206.728 425.107 207.828 425.329Z" fill="white"/>
<path d="M181.817 429.223L173.102 451.749L169.758 450.455L171.12 446.936L170.827 446.822C169.892 447.843 168.773 448.484 167.47 448.744C166.163 449.014 164.776 448.865 163.309 448.298C161.823 447.723 160.717 446.907 159.99 445.85C159.25 444.799 158.834 443.565 158.742 442.147L158.508 442.056C157.481 442.996 156.258 443.586 154.84 443.824C153.417 444.071 151.9 443.883 150.286 443.259C148.272 442.48 146.869 441.212 146.076 439.455C145.279 437.708 145.394 435.51 146.419 432.86L152.252 417.784L155.713 419.123L149.88 434.199C149.237 435.861 149.232 437.225 149.865 438.291C150.498 439.356 151.431 440.127 152.662 440.604C154.246 441.217 155.659 441.212 156.9 440.591C158.137 439.979 159.037 438.945 159.601 437.488L165.275 422.823L168.794 424.184L162.825 439.613C162.33 440.893 162.346 442.086 162.875 443.189C163.399 444.303 164.317 445.113 165.627 445.62C166.526 445.968 167.46 446.054 168.427 445.877C169.385 445.697 170.268 445.274 171.076 444.609C171.871 443.95 172.482 443.068 172.909 441.963L178.356 427.884L181.817 429.223Z" fill="white"/>
<path d="M131.634 406.078L113.126 432.433L110.089 430.3L116.921 420.572L116.664 420.391C116.2 420.577 115.584 420.798 114.815 421.053C114.033 421.31 113.12 421.387 112.079 421.283C111.023 421.182 109.851 420.679 108.564 419.776C106.9 418.607 105.725 417.161 105.04 415.437C104.354 413.713 104.192 411.837 104.552 409.81C104.913 407.783 105.822 405.732 107.28 403.655C108.75 401.562 110.38 399.998 112.171 398.962C113.955 397.935 115.773 397.444 117.625 397.489C119.47 397.542 121.217 398.147 122.864 399.304C124.134 400.196 125.003 401.12 125.471 402.077C125.933 403.042 126.18 403.939 126.213 404.769C126.239 405.607 126.237 406.285 126.207 406.802L126.567 407.055L128.7 404.018L131.634 406.078ZM121.708 413.865C122.756 412.372 123.462 410.901 123.826 409.453C124.184 408.013 124.168 406.677 123.779 405.443C123.385 404.217 122.578 403.177 121.36 402.322C120.09 401.43 118.796 401.02 117.476 401.093C116.142 401.168 114.86 401.626 113.63 402.466C112.385 403.308 111.269 404.433 110.281 405.84C109.305 407.229 108.64 408.633 108.285 410.049C107.916 411.468 107.932 412.805 108.332 414.059C108.717 415.317 109.554 416.397 110.84 417.301C112.076 418.168 113.334 418.584 114.614 418.548C115.889 418.521 117.132 418.1 118.344 417.286C119.551 416.481 120.672 415.34 121.708 413.865Z" fill="white"/>
<path d="M101.782 382.125C103.372 383.618 104.411 385.306 104.901 387.189C105.382 389.065 105.321 390.999 104.716 392.991C104.103 394.975 102.943 396.877 101.235 398.696C99.5127 400.53 97.6769 401.818 95.7274 402.562C93.7704 403.298 91.8406 403.485 89.938 403.122C88.0277 402.752 86.2778 401.821 84.6883 400.328C83.0988 398.835 82.0632 397.151 81.5815 395.275C81.0922 393.392 81.1574 391.454 81.7771 389.462C82.3892 387.462 83.5564 385.546 85.2787 383.711C86.9866 381.893 88.8156 380.619 90.7654 379.89C92.7077 379.154 94.6339 378.971 96.5441 379.341C98.4467 379.704 100.193 380.632 101.782 382.125ZM99.5003 384.555C98.2928 383.421 97.0087 382.798 95.648 382.685C94.2872 382.572 92.946 382.844 91.6242 383.501C90.3025 384.158 89.0891 385.075 87.9839 386.252C86.8788 387.429 86.0362 388.701 85.4562 390.069C84.8762 391.437 84.6817 392.801 84.8727 394.159C85.0637 395.518 85.763 396.764 86.9704 397.898C88.1778 399.032 89.4655 399.651 90.8334 399.757C92.2014 399.862 93.5498 399.582 94.8787 398.918C96.2076 398.253 97.4246 397.332 98.5298 396.155C99.6349 394.978 100.474 393.71 101.047 392.349C101.62 390.989 101.807 389.633 101.609 388.282C101.41 386.931 100.708 385.689 99.5003 384.555Z" fill="white"/>
<path d="M82.4505 361.368C83.8161 363.068 84.6097 364.884 84.8314 366.817C85.0464 368.742 84.7154 370.649 83.8384 372.537C82.9548 374.416 81.5405 376.137 79.5953 377.7C77.6338 379.276 75.636 380.295 73.6019 380.76C71.5612 381.216 69.6242 381.131 67.7909 380.506C65.9511 379.873 64.3483 378.706 62.9828 377.006C61.6172 375.306 60.8269 373.494 60.6118 371.569C60.3902 369.636 60.7252 367.726 61.617 365.84C62.5022 363.946 63.9255 362.211 65.887 360.635C67.8322 359.072 69.821 358.066 71.8535 357.617C73.8795 357.159 75.8124 357.247 77.6522 357.88C79.4855 358.505 81.085 359.668 82.4505 361.368ZM79.8516 363.456C78.8143 362.164 77.6298 361.368 76.2981 361.066C74.9664 360.764 73.6004 360.846 72.1998 361.312C70.7993 361.778 69.4697 362.517 68.2111 363.528C66.9525 364.539 65.9405 365.682 65.1752 366.955C64.41 368.229 64.0271 369.552 64.0265 370.924C64.026 372.296 64.5444 373.627 65.5817 374.919C66.619 376.21 67.8076 377.003 69.1475 377.298C70.4873 377.594 71.8616 377.505 73.2702 377.032C74.6789 376.56 76.0126 375.818 77.2712 374.807C78.5298 373.796 79.5377 372.657 80.2948 371.389C81.0519 370.122 81.4267 368.806 81.419 367.441C81.4114 366.075 80.8889 364.747 79.8516 363.456Z" fill="white"/>
<path d="M67.5952 321.911C68.3997 323.513 68.8852 324.993 69.0518 326.353C69.2276 327.707 69.1759 328.936 68.8966 330.038C68.6219 331.126 68.2227 332.083 67.6991 332.909L64.5174 331.199C64.7603 330.702 65.0195 330.096 65.2948 329.383C65.5795 328.665 65.7093 327.814 65.6841 326.83C65.6636 325.831 65.3263 324.681 64.6723 323.379C63.7972 321.636 62.6534 320.41 61.241 319.7C59.8286 318.99 58.223 319.086 56.4243 319.99L52.04 322.191L52.1812 322.473C52.697 322.518 53.3582 322.62 54.1648 322.778C54.9574 322.932 55.7879 323.312 56.6563 323.92C57.5107 324.524 58.2907 325.528 58.9965 326.933C59.8716 328.675 60.2451 330.447 60.117 332.248C59.9842 334.039 59.3332 335.732 58.164 337.328C56.9901 338.915 55.2789 340.273 53.0306 341.402C50.8197 342.513 48.6993 343.091 46.6693 343.136C44.63 343.187 42.8125 342.745 41.2169 341.81C39.6118 340.88 38.3529 339.506 37.4402 337.689C36.7344 336.283 36.4088 335.051 36.4631 333.991C36.5034 332.927 36.7081 332.027 37.0772 331.29C37.4322 330.548 37.7359 329.962 37.9883 329.53L37.8189 329.193L34.3901 330.915L32.7811 327.711L54.9836 316.56C56.8385 315.629 58.5585 315.293 60.1436 315.553C61.7334 315.798 63.1551 316.492 64.4089 317.634C65.6674 318.761 66.7295 320.187 67.5952 321.911ZM55.7915 327.98C55.1234 326.649 54.2544 325.678 53.1844 325.066C52.1144 324.453 50.8879 324.195 49.5051 324.292C48.1222 324.388 46.6345 324.836 45.0419 325.636C43.4868 326.417 42.2319 327.34 41.2774 328.406C40.3229 329.472 39.739 330.633 39.5255 331.89C39.3121 333.147 39.5441 334.45 40.2217 335.799C40.9274 337.204 41.8715 338.197 43.054 338.776C44.2317 339.346 45.5378 339.564 46.9722 339.43C48.4018 339.287 49.8474 338.848 51.3088 338.114C52.8077 337.361 54.0157 336.461 54.9327 335.414C55.8357 334.363 56.3822 333.208 56.5722 331.951C56.7481 330.69 56.4879 329.366 55.7915 327.98Z" fill="white"/>
<path d="M58.7468 303.525C58.9485 304.121 59.0787 304.669 59.1375 305.169C59.2062 305.666 59.2261 306.019 59.1972 306.228L55.7966 306.384C55.7259 305.456 55.5498 304.674 55.2683 304.039C54.9868 303.404 54.4972 302.922 53.7995 302.594C53.1083 302.252 52.1095 302.065 50.8032 302.031L48.794 301.981L28.6624 318.229L27.3712 314.416L43.463 301.927L43.3823 301.689L23.0134 301.547L21.7222 297.734L51.2243 298.568C52.5538 298.605 53.7151 298.815 54.7082 299.198C55.7112 299.578 56.5459 300.131 57.2124 300.857C57.8755 301.573 58.387 302.463 58.7468 303.525Z" fill="white"/>
<path d="M42.3356 283.061L18.4815 286.852L17.9188 283.312L21.646 282.719L21.5966 282.409C20.2442 282.114 19.1279 281.469 18.2478 280.473C17.3574 279.479 16.7888 278.205 16.5419 276.652C16.2918 275.078 16.4409 273.712 16.9891 272.553C17.5253 271.385 18.3832 270.405 19.5629 269.612L19.5234 269.364C18.1943 268.948 17.0703 268.188 16.1514 267.081C15.2221 265.976 14.6218 264.57 14.3503 262.861C14.0113 260.729 14.4019 258.878 15.5219 257.309C16.6316 255.743 18.5893 254.736 21.395 254.29L37.3599 251.753L37.9423 255.418L21.9775 257.955C20.2174 258.235 19.036 258.916 18.4333 259.999C17.8305 261.082 17.6328 262.276 17.8401 263.581C18.1066 265.258 18.8204 266.477 19.9815 267.237C21.1322 267.999 22.4789 268.257 24.0216 268.012L39.5515 265.544L40.1439 269.271L23.8063 271.867C22.4501 272.083 21.4277 272.696 20.7393 273.708C20.0405 274.721 19.8014 275.922 20.0219 277.309C20.1733 278.262 20.5684 279.112 21.2074 279.859C21.8447 280.597 22.654 281.147 23.6354 281.511C24.6047 281.867 25.6744 281.952 26.8443 281.766L41.7531 279.396L42.3356 283.061Z" fill="white"/>
<path d="M37.09 227.687L5 224.973L5.31279 221.275L17.1585 222.277L17.185 221.963C16.7901 221.656 16.2892 221.235 15.6822 220.7C15.0656 220.153 14.5399 219.404 14.1049 218.452C13.6603 217.489 13.5043 216.223 13.6369 214.656C13.8083 212.63 14.466 210.887 15.61 209.426C16.7541 207.966 18.2924 206.881 20.2252 206.171C22.1579 205.461 24.3882 205.214 26.9161 205.427C29.4649 205.643 31.6376 206.263 33.4341 207.289C35.2201 208.313 36.5601 209.636 37.4539 211.258C38.3372 212.879 38.6941 214.693 38.5245 216.699C38.3937 218.245 38.0331 219.461 37.4426 220.347C36.8416 221.233 36.1909 221.898 35.4904 222.344C34.7794 222.789 34.1931 223.129 33.7314 223.363L33.6943 223.802L37.3922 224.115L37.09 227.687ZM25.3637 223.034C27.1813 223.188 28.8073 223.057 30.2417 222.642C31.6656 222.226 32.8126 221.539 33.6826 220.581C34.5422 219.623 35.0348 218.402 35.1602 216.919C35.291 215.373 34.9927 214.048 34.2654 212.945C33.5285 211.831 32.4875 210.954 31.1424 210.314C29.7877 209.663 28.2538 209.265 26.5407 209.12C24.8484 208.977 23.3012 209.109 21.8991 209.516C20.4873 209.912 19.3404 210.599 18.4581 211.577C17.5663 212.543 17.0541 213.809 16.9216 215.376C16.7943 216.88 17.0687 218.177 17.7447 219.265C18.4102 220.352 19.3999 221.214 20.7136 221.852C22.017 222.488 23.567 222.882 25.3637 223.034Z" fill="white"/>
<path d="M42.7249 189.962C42.2356 192.087 41.3005 193.835 39.9198 195.206C38.5414 196.567 36.8395 197.487 34.814 197.967C32.7909 198.437 30.5637 198.392 28.1323 197.832C25.6805 197.268 23.6426 196.33 22.0187 195.02C20.3971 193.7 19.2641 192.127 18.6197 190.3C17.9777 188.464 17.9014 186.483 18.3908 184.358C18.8802 182.233 19.814 180.49 21.1924 179.129C22.5732 177.758 24.2802 176.839 26.3135 176.371C28.3492 175.894 30.5929 175.937 33.0447 176.502C35.4761 177.062 37.4975 178 39.1089 179.318C40.7226 180.626 41.8505 182.198 42.4925 184.035C43.1368 185.861 43.2143 187.837 42.7249 189.962ZM39.4763 189.214C39.848 187.6 39.7401 186.176 39.1526 184.944C38.5651 183.711 37.6548 182.689 36.4216 181.878C35.1883 181.067 33.7851 180.48 32.2119 180.118C30.6386 179.756 29.115 179.668 27.641 179.856C26.167 180.044 24.8912 180.562 23.8135 181.411C22.7359 182.26 22.0112 183.492 21.6394 185.106C21.2677 186.72 21.3807 188.145 21.9784 189.38C22.5762 190.615 23.4967 191.639 24.7401 192.452C25.9836 193.266 27.3919 193.854 28.9651 194.216C30.5384 194.578 32.0569 194.664 33.5207 194.474C34.9844 194.284 36.2501 193.764 37.3175 192.912C38.385 192.061 39.1046 190.828 39.4763 189.214Z" fill="white"/>
<path d="M50.9642 162.777C50.1788 164.811 49.0056 166.409 47.4446 167.571C45.8873 168.723 44.0722 169.393 41.9991 169.581C39.9299 169.76 37.7315 169.4 35.4039 168.501C33.0568 167.595 31.1722 166.378 29.7502 164.852C28.3319 163.315 27.4332 161.597 27.0541 159.698C26.6787 157.789 26.8838 155.817 27.6692 153.783C28.4546 151.749 29.6259 150.156 31.1831 149.004C32.7441 147.842 34.5642 147.174 36.6432 146.999C38.7261 146.814 40.941 147.175 43.2881 148.081C45.6157 148.98 47.4837 150.196 48.8922 151.728C50.3044 153.251 51.1983 154.968 51.5736 156.877C51.9527 158.776 51.7496 160.743 50.9642 162.777ZM47.8543 161.576C48.4509 160.031 48.5457 158.607 48.1387 157.304C47.7317 156 46.9753 154.86 45.8694 153.882C44.7635 152.904 43.4575 152.125 41.9514 151.543C40.4454 150.962 38.9495 150.66 37.4638 150.637C35.9781 150.614 34.6417 150.946 33.4546 151.634C32.2675 152.322 31.3757 153.438 30.7791 154.984C30.1825 156.529 30.0926 157.955 30.5093 159.262C30.9261 160.569 31.6923 161.713 32.808 162.695C33.9237 163.676 35.2345 164.458 36.7406 165.039C38.2467 165.621 39.7377 165.921 41.2136 165.94C42.6895 165.96 44.0161 165.623 45.1934 164.932C46.3707 164.24 47.2577 163.122 47.8543 161.576Z" fill="white"/>
<path d="M77.664 130.154C76.6806 131.653 75.6425 132.815 74.5495 133.64C73.4653 134.471 72.3763 135.041 71.2824 135.352C70.203 135.659 69.1747 135.793 68.1975 135.754L68.0836 132.144C68.6357 132.105 69.2893 132.026 70.0444 131.907C70.8083 131.794 71.6099 131.479 72.4493 130.964C73.3032 130.446 74.1299 129.578 74.9292 128.36C75.9987 126.729 76.487 125.125 76.3939 123.547C76.3008 121.969 75.4128 120.628 73.7299 119.524L69.6277 116.832L69.4552 117.095C69.6738 117.565 69.9168 118.188 70.1843 118.965C70.4487 119.728 70.5354 120.638 70.4443 121.694C70.3502 122.735 69.8719 123.914 69.0094 125.228C67.9398 126.859 66.5938 128.07 64.9714 128.861C63.3547 129.643 61.5628 129.928 59.5957 129.716C57.6344 129.495 55.6018 128.695 53.4981 127.314C51.4295 125.957 49.8669 124.412 48.8102 122.678C47.7448 120.938 47.2169 119.144 47.2265 117.295C47.2273 115.44 47.7855 113.662 48.9011 111.961C49.7636 110.647 50.6671 109.747 51.6114 109.263C52.5527 108.765 53.4346 108.491 54.257 108.441C55.0765 108.377 55.7363 108.346 56.2364 108.348L56.4435 108.033L53.2353 105.928L55.202 102.93L75.9759 116.559C77.7114 117.697 78.8639 119.018 79.4332 120.519C80.0171 122.018 80.1291 123.596 79.7692 125.253C79.4238 126.908 78.722 128.541 77.664 130.154ZM66.498 122.979C67.3146 121.734 67.7197 120.496 67.7135 119.263C67.7073 118.03 67.3162 116.839 66.5401 115.691C65.764 114.542 64.6309 113.479 63.1407 112.502C61.6857 111.547 60.2578 110.924 58.8571 110.632C57.4564 110.34 56.1587 110.416 54.964 110.861C53.7694 111.306 52.758 112.16 51.93 113.422C51.0674 114.737 50.6817 116.051 50.7728 117.364C50.8697 118.669 51.3354 119.909 52.1698 121.083C53.01 122.249 54.1138 123.28 55.4812 124.177C56.8837 125.097 58.2677 125.692 59.6334 125.961C60.996 126.215 62.2688 126.11 63.4516 125.645C64.6315 125.165 65.6469 124.276 66.498 122.979Z" fill="white"/>
<path d="M89.1696 113.241C88.7556 113.714 88.347 114.102 87.9438 114.404C87.5485 114.713 87.2532 114.907 87.058 114.987L85.2164 112.124C85.9835 111.597 86.571 111.053 86.979 110.49C87.387 109.928 87.5578 109.263 87.4914 108.494C87.4398 107.725 87.1006 106.767 86.4739 105.621L85.5086 103.858L61.3508 94.6025L64.0003 91.5718L82.8793 99.22L83.0449 99.0306L72.9424 81.343L75.5919 78.3123L89.6803 104.246C90.3159 105.415 90.7173 106.525 90.8845 107.576C91.0595 108.634 91.0003 109.633 90.7068 110.574C90.4203 111.507 89.9078 112.396 89.1696 113.241Z" fill="white"/>
<path d="M98.6107 88.7887L83.3175 70.0935L86.0926 67.8234L88.4821 70.7446L88.7256 70.5454C88.2986 69.2288 88.2936 67.9395 88.7104 66.6775C89.1207 65.4074 89.9343 64.2745 91.1515 63.2788C92.3848 62.2699 93.6403 61.7102 94.9178 61.5997C96.1968 61.4744 97.4758 61.7216 98.7547 62.3413L98.9495 62.182C98.6383 60.8248 98.7292 59.4706 99.222 58.1193C99.7082 56.76 100.621 55.5327 101.96 54.4375C103.631 53.0701 105.427 52.475 107.346 52.6522C109.258 52.8213 111.114 54.0054 112.913 56.2043L123.148 68.7164L120.276 71.0661L110.04 58.554C108.912 57.1746 107.728 56.4974 106.489 56.5224C105.25 56.5473 104.119 56.978 103.097 57.8143C101.782 58.8896 101.089 60.1202 101.017 61.5062C100.939 62.884 101.394 64.1774 102.383 65.3864L112.34 77.5578L109.419 79.9473L98.9446 67.1431C98.0751 66.0801 97.0299 65.5062 95.8092 65.4212C94.5819 65.3282 93.4245 65.7264 92.3372 66.6158C91.5907 67.2265 91.0555 67.9961 90.7316 68.9247C90.4159 69.8467 90.3479 70.8233 90.5278 71.8545C90.7091 72.8709 91.1748 73.8376 91.9249 74.7545L101.483 86.4389L98.6107 88.7887Z" fill="white"/>
<path d="M143.503 56.525L129.694 27.4314L133.046 25.8401L138.144 36.5797L138.428 36.4448C138.494 35.9491 138.606 35.3043 138.763 34.5104C138.925 33.7024 139.308 32.8709 139.911 32.0158C140.52 31.1466 141.535 30.375 142.955 29.7007C144.792 28.8286 146.63 28.5192 148.468 28.7726C150.305 29.0259 152.017 29.8089 153.603 31.1216C155.19 32.4342 156.527 34.2365 157.615 36.5284C158.711 38.8392 159.269 41.0288 159.288 43.0971C159.302 45.156 158.833 46.9799 157.881 48.5688C156.925 50.1482 155.538 51.3695 153.72 52.2326C152.318 52.8979 151.086 53.1985 150.022 53.1345C148.955 53.0611 148.052 52.8339 147.314 52.4531C146.572 52.0627 145.983 51.7271 145.548 51.4462L145.151 51.635L146.742 54.9876L143.503 56.525ZM141.62 44.0505C142.402 45.6984 143.334 47.0375 144.415 48.0678C145.491 49.0887 146.662 49.734 147.927 50.0038C149.188 50.264 150.491 50.075 151.836 49.4367C153.237 48.7714 154.232 47.8469 154.819 46.6632C155.41 45.4655 155.644 44.1244 155.52 42.6401C155.401 41.1418 154.972 39.616 154.235 38.0629C153.507 36.5286 152.614 35.2583 151.556 34.2519C150.503 33.2315 149.332 32.5862 148.043 32.316C146.76 32.0318 145.407 32.2268 143.987 32.9011C142.623 33.5484 141.641 34.438 141.041 35.5699C140.437 36.6923 140.19 37.9815 140.301 39.4374C140.407 40.8839 140.847 42.4216 141.62 44.0505Z" fill="white"/>
<path d="M179.008 42.3931C176.925 43.0377 174.944 43.1076 173.065 42.6027C171.195 42.0947 169.544 41.0858 168.111 39.5759C166.688 38.0629 165.608 36.1147 164.871 33.7312C164.127 31.3277 163.913 29.0948 164.23 27.0325C164.556 24.9672 165.347 23.197 166.603 21.7221C167.868 20.2441 169.542 19.1828 171.625 18.5381C173.709 17.8935 175.685 17.8252 177.554 18.3331C179.433 18.838 181.085 19.852 182.511 21.3749C183.948 22.8948 185.037 24.8566 185.781 27.2601C186.519 29.6436 186.723 31.863 186.393 33.9183C186.074 35.9706 185.281 37.7357 184.016 39.2137C182.76 40.6887 181.091 41.7484 179.008 42.3931ZM178.022 39.2084C179.605 38.7187 180.781 37.9102 181.551 36.7829C182.322 35.6556 182.748 34.3551 182.83 32.8813C182.911 31.4075 182.713 29.8995 182.236 28.3572C181.759 26.8149 181.069 25.4538 180.166 24.2737C179.263 23.0936 178.174 22.251 176.898 21.7459C175.622 21.2408 174.193 21.2331 172.611 21.7228C171.029 22.2125 169.854 23.026 169.087 24.1633C168.319 25.3006 167.896 26.6112 167.818 28.095C167.739 29.5788 167.939 31.0918 168.416 32.6341C168.893 34.1763 169.582 35.5325 170.481 36.7026C171.381 37.8727 172.467 38.7052 173.74 39.2003C175.012 39.6954 176.44 39.6981 178.022 39.2084Z" fill="white"/>
<path d="M206.633 35.8593C204.48 36.203 202.509 35.9922 200.72 35.2267C198.942 34.4597 197.45 33.2275 196.245 31.5302C195.05 29.8313 194.256 27.7499 193.863 25.2861C193.466 22.8015 193.57 20.5609 194.175 18.5641C194.79 16.5656 195.824 14.925 197.275 13.6424C198.737 12.3581 200.544 11.5441 202.697 11.2004C204.851 10.8567 206.817 11.0684 208.595 11.8354C210.384 12.6009 211.877 13.8382 213.073 15.5475C214.28 17.2551 215.081 19.3512 215.478 21.8358C215.871 24.2996 215.76 26.5255 215.143 28.5137C214.536 30.5001 213.502 32.1355 212.04 33.4198C210.589 34.7024 208.787 35.5156 206.633 35.8593ZM206.108 32.5673C207.744 32.3062 209.023 31.6722 209.945 30.6651C210.867 29.658 211.472 28.4307 211.761 26.9833C212.051 25.5358 212.068 24.015 211.813 22.4207C211.559 20.8265 211.068 19.3814 210.341 18.0856C209.614 16.7897 208.655 15.8016 207.463 15.1212C206.272 14.4409 204.858 14.2313 203.223 14.4924C201.587 14.7535 200.309 15.3927 199.389 16.4102C198.468 17.4276 197.864 18.6652 197.577 20.123C197.289 21.5808 197.273 23.1069 197.527 24.7011C197.782 26.2953 198.272 27.7352 198.997 29.0207C199.723 30.3063 200.68 31.284 201.87 31.954C203.06 32.624 204.472 32.8284 206.108 32.5673Z" fill="white"/>
</svg>
